HIERARCHY
ROOT Pelvis
{
	OFFSET 0.000000 0.000000 0.000000
	CHANNELS 6 Xposition Yposition Zposition Xrotation Yrotation Zrotation
	JOINT LeftUpLeg_virtual
	{
		OFFSET 0.000000 0.000000 0.000000
		CHANNELS 3 Xrotation Yrotation Zrotation
		JOINT LeftUpLeg
		{
			OFFSET 18.735201 -5.666702 -4.541200
			CHANNELS 3 Xrotation Yrotation Zrotation
			JOINT LeftLeg
			{
				OFFSET -0.021200 -31.938179 0.493100
				CHANNELS 3 Xrotation Yrotation Zrotation
				JOINT LeftFoot
				{
					OFFSET 0.021200 -31.938179 -4.336299
					CHANNELS 3 Xrotation Yrotation Zrotation
					JOINT LeftToeBase
					{
						OFFSET 0.943001 -26.722000 15.023500
						CHANNELS 3 Xrotation Yrotation Zrotation
						End Site
						{
							OFFSET 0 0 0
						}
					}
				}
			}
		}
	}
	JOINT RightUpLeg_virtual
	{
		OFFSET 0.000000 0.000000 0.000000
		CHANNELS 3 Xrotation Yrotation Zrotation
		JOINT RightUpLeg
		{
			OFFSET -18.735201 -5.666702 -4.541200
			CHANNELS 3 Xrotation Yrotation Zrotation
			JOINT RightLeg
			{
				OFFSET 0.018946 -31.938133 0.493100
				CHANNELS 3 Xrotation Yrotation Zrotation
				JOINT RightFoot
				{
					OFFSET -0.018946 -31.938126 -4.336299
					CHANNELS 3 Xrotation Yrotation Zrotation
					JOINT RightToeBase
					{
						OFFSET -0.943001 -26.722004 15.023500
						CHANNELS 3 Xrotation Yrotation Zrotation
						End Site
						{
							OFFSET 0 0 0
						}
					}
				}
			}
		}
	}
	JOINT Hips_virtual
	{
		OFFSET 0.000000 0.000000 0.000000
		CHANNELS 3 Xrotation Yrotation Zrotation
		JOINT Hips
		{
			OFFSET -0.000000 -0.000000 -0.000000
			CHANNELS 3 Xrotation Yrotation Zrotation
			JOINT Spine
			{
				OFFSET 0.000000 10.199997 -0.299500
				CHANNELS 3 Xrotation Yrotation Zrotation
				JOINT Spine1
				{
					OFFSET 0.000000 11.900002 -1.516600
					CHANNELS 3 Xrotation Yrotation Zrotation
					JOINT Spine2
					{
						OFFSET 0.000000 13.600006 -2.842500
						CHANNELS 3 Xrotation Yrotation Zrotation
						JOINT Neck_virtual
						{
							OFFSET 0.000000 0.000000 0.000000
							CHANNELS 3 Xrotation Yrotation Zrotation
							JOINT Neck
							{
								OFFSET 0.000000 9.624100 -2.890100
								CHANNELS 3 Xrotation Yrotation Zrotation
								JOINT Head
								{
									OFFSET 0.000000 14.068802 -1.351900
									CHANNELS 3 Xrotation Yrotation Zrotation
									End Site
									{
										OFFSET 0 0 0
									}
								}
							}
						}
						JOINT LeftShoulder_virtual
						{
							OFFSET 0.000000 0.000000 0.000000
							CHANNELS 3 Xrotation Yrotation Zrotation
							JOINT LeftShoulder
							{
								OFFSET 15.263000 10.923401 -0.547700
								CHANNELS 3 Xrotation Yrotation Zrotation
								JOINT LeftArm
								{
									OFFSET 25.438599 -2.830597 -13.032500
									CHANNELS 3 Xrotation Yrotation Zrotation
									JOINT LeftForeArm
									{
										OFFSET 29.960503 0.000000 0.000000
										CHANNELS 3 Xrotation Yrotation Zrotation
										JOINT LeftHand
										{
											OFFSET 27.849251 0.000000 0.000000
											CHANNELS 3 Xrotation Yrotation Zrotation
											End Site
											{
												OFFSET 0 0 0
											}
										}
									}
								}
							}
						}
						JOINT RightShoulder_virtual
						{
							OFFSET 0.000000 0.000000 0.000000
							CHANNELS 3 Xrotation Yrotation Zrotation
							JOINT RightShoulder
							{
								OFFSET -15.263000 10.923401 -0.547700
								CHANNELS 3 Xrotation Yrotation Zrotation
								JOINT RightArm
								{
									OFFSET -25.438599 -2.830597 -13.032500
									CHANNELS 3 Xrotation Yrotation Zrotation
									JOINT RightForeArm
									{
										OFFSET -29.960503 0.000000 0.000000
										CHANNELS 3 Xrotation Yrotation Zrotation
										JOINT RightHand
										{
											OFFSET -27.849251 0.000000 0.000000
											CHANNELS 3 Xrotation Yrotation Zrotation
											End Site
											{
												OFFSET 0 0 0
											}
										}
									}
								}
							}
						}
					}
				}
			}
		}
	}
}
MOTION
Frames: 4
Frame Time: 0.03333333
-4.173826 91.908752 -3.816242 0.000000 0.000000 0.000000 -6.317501 -0.588148 3.701713 -12.420636 10.254988 -3.479982 28.331451 0.224553 0.158905 -3.946407 7.156028 2.942628 0.000000 0.000000 0.000000 -7.085024 0.911695 2.894558 -15.656959 -14.982064 -16.409757 28.382981 1.886483 0.038743 -9.781028 -14.327983 9.176777 0.000000 0.000000 0.000000 -7.197637 0.056150 3.788140 0.622391 0.476307 -0.963204 7.320540 1.782924 -2.568962 15.110228 3.258185 -2.575964 0.000000 0.000000 0.000000 14.328472 3.120140 -3.111860 6.399256 0.264018 -1.011431 0.000000 0.000000 0.000000 14.901670 3.448016 -3.092930 -1.683336 -18.885354 -25.533364 -12.021833 -47.673590 -39.678881 13.222054 -24.878833 3.576861 0.000000 0.000000 0.000000 15.332571 3.149377 -3.449450 -0.685680 24.403846 19.140680 -8.383297 16.377474 52.259645 40.378750 35.346748 -18.074100 0.000000 0.000000 0.000000 
-3.487952 92.195496 -3.601528 0.000000 0.000000 0.000000 -8.034393 -2.783676 4.290759 -8.404904 11.369138 -5.140771 25.294231 0.006039 0.065708 -4.849948 7.009060 3.309455 0.000000 0.000000 0.000000 -8.920448 -1.000079 3.506689 -13.989401 -14.873999 -17.238660 27.183610 2.381876 -0.068109 -9.087619 -13.644432 9.466366 0.000000 0.000000 0.000000 -9.120590 -2.051800 4.262306 0.459906 0.611083 -1.093616 7.217773 2.013819 -3.161325 13.404027 3.202377 -2.635956 0.000000 0.000000 0.000000 12.484297 3.124043 -3.143766 5.975277 0.162624 -0.809469 0.000000 0.000000 0.000000 13.194984 3.462172 -3.074388 -0.445144 -16.234467 -22.293403 -10.856778 -46.734248 -42.275411 12.368097 -23.998708 3.603176 0.000000 0.000000 0.000000 13.598521 3.076996 -3.539284 0.034652 22.857464 18.204051 -2.951106 18.821519 51.873279 39.449981 36.991280 -18.114963 0.000000 0.000000 0.000000 
-2.928890 92.266602 -3.333496 0.000000 0.000000 0.000000 -9.359931 -4.283642 4.650518 -5.626549 12.359582 -6.593677 23.415931 -0.043500 -0.031566 -5.437642 7.048856 3.893158 0.000000 0.000000 0.000000 -10.236513 -2.443286 3.943564 -13.006000 -14.909791 -18.031320 26.733079 2.570663 0.026072 -9.345218 -13.396692 9.465863 0.000000 0.000000 0.000000 -10.517813 -3.514255 4.577664 0.431579 0.743125 -1.160906 6.971601 2.129689 -3.713499 11.753688 3.085472 -2.660405 0.000000 0.000000 0.000000 10.690794 3.054181 -3.143683 5.547299 0.090758 -0.597167 0.000000 0.000000 0.000000 11.573816 3.382164 -3.003300 0.705820 -14.046654 -18.723782 -6.803732 -44.085220 -41.819281 12.730871 -26.047372 3.491570 0.000000 0.000000 0.000000 11.950005 2.948980 -3.626255 0.879106 21.013891 16.645902 1.814456 19.902029 51.436314 38.992829 40.568510 -18.743822 0.000000 0.000000 0.000000 
-2.520370 92.205841 -3.057693 0.000000 0.000000 0.000000 -10.301422 -4.925950 4.885360 -4.207974 13.196127 -7.581940 22.866761 0.035453 -0.107289 -5.752533 7.192015 4.537760 0.000000 0.000000 0.000000 -11.068889 -3.223714 4.251689 -12.427431 -15.189675 -18.809334 26.551230 2.502317 0.252180 -9.938118 -13.452317 9.656970 0.000000 0.000000 0.000000 -11.413265 -4.260359 4.863043 0.479587 0.947542 -1.266120 6.537812 2.143792 -4.053598 10.296606 2.974793 -2.710478 0.000000 0.000000 0.000000 9.108850 2.945726 -3.187156 5.114505 0.052402 -0.406403 0.000000 0.000000 0.000000 10.107346 3.270887 -2.967302 1.699239 -12.335479 -15.261592 -1.920919 -39.748013 -40.195236 14.138892 -29.654400 3.294816 0.000000 0.000000 0.000000 10.489438 2.843696 -3.738254 1.736676 18.996225 14.322540 4.241079 19.995683 52.261025 38.514873 44.057599 -19.295950 0.000000 0.000000 0.000000 
